<svg width="228" height="58" viewBox="0 0 228 58" fill="none" xmlns="http://www.w3.org/2000/svg">
<g clip-path="url(#clip0_47_182)">
<path d="M151.625 39.8369C150.411 38.6758 149.45 37.2811 148.743 35.6528C148.049 34.0246 147.702 32.2428 147.702 30.3076C147.702 28.359 148.029 26.5173 148.683 24.7822C149.337 23.0472 150.271 21.519 151.485 20.1978C152.7 18.8765 154.168 17.8288 155.89 17.0547C157.611 16.2673 159.54 15.8735 161.675 15.8735C165.359 15.8735 168.462 17.0347 170.984 19.3569C173.68 21.8394 175.028 25.1893 175.028 29.4067C175.028 33.4907 173.64 36.8874 170.864 39.5967C169.156 41.265 167.121 42.4128 164.758 43.04C163.597 43.347 162.236 43.5005 160.674 43.5005C159.126 43.5005 157.531 43.1802 155.89 42.5396C154.261 41.8989 152.84 40.998 151.625 39.8369ZM153.267 30.0273C153.267 31.2686 153.474 32.4097 153.888 33.4507C154.301 34.4917 154.875 35.3859 155.609 36.1333C157.171 37.7082 159.18 38.4956 161.635 38.4956C163.971 38.4956 165.846 37.7415 167.261 36.2334C168.702 34.6719 169.423 32.5431 169.423 29.8472C169.423 27.3114 168.736 25.196 167.361 23.501C165.879 21.6859 163.851 20.7783 161.275 20.7783C158.779 20.7783 156.797 21.6992 155.329 23.541C153.954 25.2627 153.267 27.4248 153.267 30.0273ZM195.778 16.2739C196.606 16.3407 197.293 16.374 197.84 16.374H199.502C200.062 16.374 200.65 16.3206 201.264 16.2139V32.77C201.264 36.0532 200.269 38.6891 198.281 40.6777C196.399 42.5596 194.036 43.5005 191.194 43.5005C188.084 43.5005 185.568 42.693 183.646 41.0781C181.498 39.263 180.423 36.6471 180.423 33.2305V16.2739C181.531 16.3407 182.572 16.374 183.546 16.374C184.534 16.374 185.348 16.3206 185.989 16.2139V33.4907C185.989 35.1724 186.502 36.4803 187.53 37.4146C188.491 38.2687 189.692 38.6958 191.134 38.6958C193.269 38.6958 194.69 37.6014 195.398 35.4126C195.651 34.6252 195.778 33.6509 195.778 32.4897V16.2739ZM218.009 43.1201C217.369 43.04 215.721 43 213.065 43H212.424V20.8584H208.46C207.286 20.8584 206.592 20.9185 206.378 21.0386C206.165 21.1587 205.998 21.2655 205.878 21.3589L205.818 21.3389V16.2139L205.878 16.1538C206.318 16.3006 207.506 16.374 209.441 16.374H221.993C223.168 16.374 223.862 16.314 224.075 16.1938C224.289 16.0737 224.456 15.967 224.576 15.8735L224.636 15.8936V21.0186L224.576 21.0786C224.135 20.9318 222.948 20.8584 221.012 20.8584H218.009V43.1201Z" fill="black"/>
<path d="M2.06396 16.2939C3.3986 16.3473 4.20605 16.374 4.48633 16.374H5.92773C6.63509 16.374 7.20231 16.3206 7.62939 16.2139L7.60938 43H2.06396V16.2939ZM15.7269 43C15.807 42.5462 15.847 42.0524 15.847 41.5186V16.374H19.8509L30.4613 33.0703V17.7354C30.4613 17.0013 30.3945 16.5475 30.2611 16.374H35.6663C35.5996 16.9079 35.5662 17.4951 35.5662 18.1357V43H31.4022L20.952 26.9644V43H15.7269ZM59.259 17.8555L58.8786 23.7412L58.7385 23.7812C57.7508 22.2998 56.0692 21.3389 53.6935 20.8984C52.9461 20.7516 52.2254 20.6782 51.5314 20.6782C50.8508 20.6782 50.2635 20.7383 49.7697 20.8584C49.2892 20.9785 48.8755 21.152 48.5285 21.3789C47.7944 21.8594 47.4274 22.4867 47.4274 23.2607C47.4274 24.2751 47.7477 25.0358 48.3884 25.543C49.1891 26.1569 50.5171 26.5907 52.3722 26.8442C54.2274 27.0845 55.7155 27.4181 56.8366 27.8452C57.9577 28.2723 58.8786 28.8128 59.5993 29.4668C60.9606 30.6947 61.6413 32.4297 61.6413 34.6719C61.6413 37.6081 60.5335 39.8703 58.318 41.4585C56.4229 42.8198 54.0339 43.5005 51.1511 43.5005C48.8288 43.5005 46.5332 43.0601 44.2643 42.1792C43.5169 41.8856 42.863 41.5452 42.3024 41.1582L42.5226 34.4717L42.6027 34.4116C44.2577 37.2677 46.9736 38.6958 50.7507 38.6958C53.4333 38.6958 55.2083 38.0485 56.0759 36.7539C56.3695 36.3135 56.5163 35.8263 56.5163 35.2925C56.5163 34.7453 56.4295 34.2982 56.256 33.9512C56.0825 33.5908 55.7956 33.2839 55.3952 33.0303C54.6211 32.5231 53.3198 32.1828 51.4914 32.0093C49.6629 31.8358 48.1681 31.5088 47.007 31.0283C45.8459 30.5479 44.9183 29.9539 44.2243 29.2466C42.9697 27.9653 42.3425 26.1769 42.3425 23.8813C42.3425 21.5057 43.1766 19.5838 44.8449 18.1157C46.5399 16.6209 48.8221 15.8735 51.6916 15.8735C54.5744 15.8735 57.0969 16.5342 59.259 17.8555ZM68.1172 16.2939C69.4518 16.3473 70.2593 16.374 70.5396 16.374H71.981C72.6883 16.374 73.2556 16.3206 73.6826 16.2139L73.6626 43H68.1172V16.2939ZM88.0863 43.5005C85.9242 43.5005 83.8889 43.327 81.9803 42.98V16.1938C83.7421 15.9803 85.784 15.8735 88.1063 15.8735C90.4419 15.8735 92.5506 16.1938 94.4325 16.8345C96.3277 17.4618 97.9092 18.3626 99.1771 19.5371C101.74 21.8861 103.021 25.1759 103.021 29.4067C103.021 34.1447 101.593 37.7415 98.7367 40.1973C96.1742 42.3994 92.624 43.5005 88.0863 43.5005ZM87.1854 38.6157C88.0529 38.7759 88.9204 38.856 89.7879 38.856C90.6555 38.856 91.5897 38.6891 92.5907 38.3555C93.5917 38.0085 94.4592 37.4746 95.1932 36.7539C96.7681 35.2324 97.5555 33.0169 97.5555 30.1074C97.5555 25.3294 95.8138 22.3932 92.3304 21.2988C91.1826 20.9385 89.8547 20.7583 88.3465 20.7583H87.806C87.6058 20.7583 87.399 20.765 87.1854 20.7783V38.6157ZM122.71 38.1953C123.537 38.1953 124.111 38.1152 124.431 37.9551L124.511 37.9751L124.311 43H109.317V16.2339C109.677 16.2606 110.077 16.2806 110.518 16.2939L111.919 16.334C112.853 16.3607 113.868 16.374 114.962 16.374C118.018 16.374 121.041 16.3206 124.031 16.2139C123.884 17.3883 123.811 18.9565 123.811 20.9185C123.811 21.132 123.824 21.2922 123.851 21.3989L123.811 21.459C123.117 21.2588 122.129 21.1587 120.848 21.1587H114.542V26.2637H119.286C120.754 26.2637 121.635 26.2236 121.929 26.1436L121.989 31.0884C121.348 31.0216 120.521 30.9883 119.507 30.9883H114.542V38.1953H122.71Z" fill="black"/>
<path d="M1 4H137.5V55H228" stroke="black" stroke-width="6"/>
</g>
<defs>
<clipPath id="clip0_47_182">
<rect width="228" height="58" fill="white"/>
</clipPath>
</defs>
</svg>
